<svg fill="none" viewBox="0 0 44 46" width="50" xmlns="http://www.w3.org/2000/svg"><path d="m21.795 46 21.569-12.025v-33.405h-43.364v33.181z" fill="#f74222"/><g fill="#fff"><path d="m24.52 10.479c-.909-.223-1.817-.223-2.725-.223h-1.135c-7.265.223-12.714 6.236-12.487 13.362s6.357 12.47 13.622 12.247c2.952 0 5.676-.89 7.946-2.45l-2.95-4.898a8.029 8.029 0 0 1 -4.996 1.781h-.908c-4.087-.222-7.265-3.785-7.038-7.794.227-4.008 3.86-7.126 7.946-6.903z"/><path d="m34.51 26.735-3.406-5.567h-6.357l-3.406 5.567h6.584l3.179 5.345 3.405-5.345zm-8.174-10.02c-.454.667-.681 1.558-.681 2.449l6.13.223v-1.56h-4.087c.227-.667.681-.89 1.362-1.335l.681-.446c1.363-.445 2.044-1.336 2.044-2.45 0-.667-.454-1.335-.908-1.78-.454-.446-1.363-.669-2.044-.669-.68 0-1.362 0-2.043.445-.454.446-.908.891-1.135 1.336l1.135 1.114c.454-.89 1.135-1.336 2.043-1.336.455 0 1.136.445 1.136.89 0 .446-.228.669-1.136 1.114l-.454.223c-.68.445-1.589 1.113-2.043 1.781z"/></g></svg>